ModelForces
version=1
nRows=4
nColumns=206
inDegrees=no

This file contains the forces exerted on a model during a simulation.

A force is a generalized force, meaning that it can be either a force (N) or a torque (Nm).

Units are S.I. units (second, meters, Newtons, ...)
Angles are in degrees.

endheader
time	glut_med1_r	glut_med2_r	glut_med3_r	glut_min1_r	glut_min2_r	glut_min3_r	semimem_r	semiten_r	bifemlh_r	bifemsh_r	sar_r	add_long_r	add_brev_r	add_mag1_r	add_mag2_r	add_mag3_r	tfl_r	pect_r	grac_r	glut_max1_r	glut_max2_r	glut_max3_r	iliacus_r	psoas_r	quad_fem_r	gem_r	peri_r	rect_fem_r	vas_med_r	vas_int_r	vas_lat_r	med_gas_r	lat_gas_r	soleus_r	tib_post_r	flex_dig_r	flex_hal_r	tib_ant_r	per_brev_r	per_long_r	per_tert_r	ext_dig_r	ext_hal_r	glut_med1_l	glut_med2_l	glut_med3_l	glut_min1_l	glut_min2_l	glut_min3_l	semimem_l	semiten_l	bifemlh_l	bifemsh_l	sar_l	add_long_l	add_brev_l	add_mag1_l	add_mag2_l	add_mag3_l	tfl_l	pect_l	grac_l	glut_max1_l	glut_max2_l	glut_max3_l	iliacus_l	psoas_l	quad_fem_l	gem_l	peri_l	rect_fem_l	vas_med_l	vas_int_l	vas_lat_l	med_gas_l	lat_gas_l	soleus_l	tib_post_l	flex_dig_l	flex_hal_l	tib_ant_l	per_brev_l	per_long_l	per_tert_l	ext_dig_l	ext_hal_l	ercspn_r	ercspn_l	intobl_r	intobl_l	extobl_r	extobl_l	femur_lat_meniscii_l.femur_lat_l.force.X	femur_lat_meniscii_l.femur_lat_l.force.Y	femur_lat_meniscii_l.femur_lat_l.force.Z	femur_lat_meniscii_l.femur_lat_l.torque.X	femur_lat_meniscii_l.femur_lat_l.torque.Y	femur_lat_meniscii_l.femur_lat_l.torque.Z	femur_lat_meniscii_l.meniscus_lat_l.force.X	femur_lat_meniscii_l.meniscus_lat_l.force.Y	femur_lat_meniscii_l.meniscus_lat_l.force.Z	femur_lat_meniscii_l.meniscus_lat_l.torque.X	femur_lat_meniscii_l.meniscus_lat_l.torque.Y	femur_lat_meniscii_l.meniscus_lat_l.torque.Z	femur_med_meniscii_l.femur_med_l.force.X	femur_med_meniscii_l.femur_med_l.force.Y	femur_med_meniscii_l.femur_med_l.force.Z	femur_med_meniscii_l.femur_med_l.torque.X	femur_med_meniscii_l.femur_med_l.torque.Y	femur_med_meniscii_l.femur_med_l.torque.Z	femur_med_meniscii_l.meniscus_med_l.force.X	femur_med_meniscii_l.meniscus_med_l.force.Y	femur_med_meniscii_l.meniscus_med_l.force.Z	femur_med_meniscii_l.meniscus_med_l.torque.X	femur_med_meniscii_l.meniscus_med_l.torque.Y	femur_med_meniscii_l.meniscus_med_l.torque.Z	femur_lat_meniscii_r.femur_lat_r.force.X	femur_lat_meniscii_r.femur_lat_r.force.Y	femur_lat_meniscii_r.femur_lat_r.force.Z	femur_lat_meniscii_r.femur_lat_r.torque.X	femur_lat_meniscii_r.femur_lat_r.torque.Y	femur_lat_meniscii_r.femur_lat_r.torque.Z	femur_lat_meniscii_r.meniscus_lat_r.force.X	femur_lat_meniscii_r.meniscus_lat_r.force.Y	femur_lat_meniscii_r.meniscus_lat_r.force.Z	femur_lat_meniscii_r.meniscus_lat_r.torque.X	femur_lat_meniscii_r.meniscus_lat_r.torque.Y	femur_lat_meniscii_r.meniscus_lat_r.torque.Z	femur_med_meniscii_r.femur_med_r.force.X	femur_med_meniscii_r.femur_med_r.force.Y	femur_med_meniscii_r.femur_med_r.force.Z	femur_med_meniscii_r.femur_med_r.torque.X	femur_med_meniscii_r.femur_med_r.torque.Y	femur_med_meniscii_r.femur_med_r.torque.Z	femur_med_meniscii_r.meniscus_med_r.force.X	femur_med_meniscii_r.meniscus_med_r.force.Y	femur_med_meniscii_r.meniscus_med_r.force.Z	femur_med_meniscii_r.meniscus_med_r.torque.X	femur_med_meniscii_r.meniscus_med_r.torque.Y	femur_med_meniscii_r.meniscus_med_r.torque.Z	femur_med_tibia_l.tibia_upper_l.force.X	femur_med_tibia_l.tibia_upper_l.force.Y	femur_med_tibia_l.tibia_upper_l.force.Z	femur_med_tibia_l.tibia_upper_l.torque.X	femur_med_tibia_l.tibia_upper_l.torque.Y	femur_med_tibia_l.tibia_upper_l.torque.Z	femur_med_tibia_l.femur_med_l.force.X	femur_med_tibia_l.femur_med_l.force.Y	femur_med_tibia_l.femur_med_l.force.Z	femur_med_tibia_l.femur_med_l.torque.X	femur_med_tibia_l.femur_med_l.torque.Y	femur_med_tibia_l.femur_med_l.torque.Z	femur_lat_tibia_l.tibia_upper_l.force.X	femur_lat_tibia_l.tibia_upper_l.force.Y	femur_lat_tibia_l.tibia_upper_l.force.Z	femur_lat_tibia_l.tibia_upper_l.torque.X	femur_lat_tibia_l.tibia_upper_l.torque.Y	femur_lat_tibia_l.tibia_upper_l.torque.Z	femur_lat_tibia_l.femur_lat_l.force.X	femur_lat_tibia_l.femur_lat_l.force.Y	femur_lat_tibia_l.femur_lat_l.force.Z	femur_lat_tibia_l.femur_lat_l.torque.X	femur_lat_tibia_l.femur_lat_l.torque.Y	femur_lat_tibia_l.femur_lat_l.torque.Z	femur_med_tibia_r.tibia_upper_r.force.X	femur_med_tibia_r.tibia_upper_r.force.Y	femur_med_tibia_r.tibia_upper_r.force.Z	femur_med_tibia_r.tibia_upper_r.torque.X	femur_med_tibia_r.tibia_upper_r.torque.Y	femur_med_tibia_r.tibia_upper_r.torque.Z	femur_med_tibia_r.femur_med_r.force.X	femur_med_tibia_r.femur_med_r.force.Y	femur_med_tibia_r.femur_med_r.force.Z	femur_med_tibia_r.femur_med_r.torque.X	femur_med_tibia_r.femur_med_r.torque.Y	femur_med_tibia_r.femur_med_r.torque.Z	femur_lat_tibia_r.tibia_upper_r.force.X	femur_lat_tibia_r.tibia_upper_r.force.Y	femur_lat_tibia_r.tibia_upper_r.force.Z	femur_lat_tibia_r.tibia_upper_r.torque.X	femur_lat_tibia_r.tibia_upper_r.torque.Y	femur_lat_tibia_r.tibia_upper_r.torque.Z	femur_lat_tibia_r.femur_lat_r.force.X	femur_lat_tibia_r.femur_lat_r.force.Y	femur_lat_tibia_r.femur_lat_r.force.Z	femur_lat_tibia_r.femur_lat_r.torque.X	femur_lat_tibia_r.femur_lat_r.torque.Y	femur_lat_tibia_r.femur_lat_r.torque.Z	aACL_R	pACL_R	aPCL_R	pPCL_R	aMCL_R	mMCL_R	pMCL_R	aLCL_R	mLCL_R	pLCL_R	aPCL_L	pPCL_L	aMCL_L	aLCL_L	ground_prescribedForce_-90_fx	ground_prescribedForce_-90_fy	ground_prescribedForce_-90_fz
      0.24849368	      8.84911709	      6.55856741	      7.03320883	      3.05886381	      3.61251716	      3.74183451	      0.00000000	      3.90710282	      4.52620633	      6.30402185	      1.73944498	      6.50902045	      4.75780613	      3.37550231	      2.84743950	      4.69885706	      3.49787259	      2.57779160	      1.63403888	      4.23221847	      6.43432303	      4.81580546	     24.27085821	     14.80038213	      4.18498298	      3.11800930	      5.07167423	    241.06436837	     45.29644500	     85.57780885	     63.55503817	      0.00000000	      0.00000000	     12.91709018	     16.73677479	      2.72911688	      3.24277501	     15.00385063	      3.44571506	      9.08604003	      6.57852763	      7.81259786	      2.52423573	      8.84911709	      6.55856741	      7.03320883	      3.05886381	      3.61251716	      3.74183451	     10.61044255	      4.78005455	      9.24619987	      8.32773376	      1.74719933	      6.50902045	      4.75780613	      3.37550231	      2.84743950	      4.69885706	      4.53764459	      2.57779160	      1.79636650	      4.23221847	      6.43432303	      4.81580546	     24.27085821	     14.80038213	      4.18498298	      3.11800930	      5.07167423	     12.79930990	      7.65880108	      8.81038208	      9.46722867	     17.86304981	      8.29659795	     38.55074665	     45.37045903	      3.53646472	      3.64704319	     10.06347781	      5.27955146	     14.56914226	      2.28973653	      6.50410744	      2.04696587	     28.77702196	     28.77702196	     10.48638142	     10.48638142	     28.14052491	     28.14052491	      2.76307435	     50.99597937	     -9.56042239	      5.21997485	     -0.02578839	      1.48581788	     -2.76307435	    -50.99597937	      9.56042239	     -1.74637766	      0.02558040	     -0.48301696	     -3.31599387	     20.97615968	     -3.40468921	      0.94473225	     -0.02138609	     -1.00501789	      3.31599387	    -20.97615968	      3.40468921	      0.28075727	      0.00368718	     -0.29758878	    297.29475668	    -10.73864267	     53.67896597	    -21.46934047	      7.29015390	    120.79340124	   -297.29475668	     10.73864267	    -53.67896597	     -0.10827604	     -9.89372280	     -1.80911493	    149.60702584	   -107.94360313	    -27.25798229	      8.97707233	     -2.82808905	     60.32395159	   -149.60702584	    107.94360313	     27.25798229	      1.56886943	      3.06051793	     -3.36237045	      0.00000000	      0.00000000	      0.00000000	      0.00000000	      0.00000000	      0.00000000	      0.00000000	      0.00000000	      0.00000000	      0.00000000	      0.00000000	      0.00000000	      0.00000000	      0.00000000	      0.00000000	      0.00000000	      0.00000000	      0.00000000	      0.00000000	      0.00000000	      0.00000000	      0.00000000	      0.00000000	      0.00000000	   -502.96155043	     18.47784712	    113.98418259	     -0.20822027	     10.19979362	     -2.52616369	    502.96155043	    -18.47784712	   -113.98418259	     45.87738856	     -8.78322135	    203.81427195	      0.00000000	      0.00000000	      0.00000000	      0.00000000	      0.00000000	      0.00000000	      0.00000000	      0.00000000	      0.00000000	      0.00000000	      0.00000000	      0.00000000	      0.00000000	      0.00000000	    846.87560905	    415.12352284	     19.42580166	      7.60830718	      1.70153113	      0.00000000	      0.00000000	      0.00000000	      0.00000000	      0.00000000	      0.00000001	      0.00000000	      0.00000000	   -110.00000000	      0.00000000
      0.24986644	      8.82599062	      6.54275375	      7.01603954	      3.05180094	      3.60484324	      3.73207779	      0.00000000	      3.89573002	      4.51014378	      6.28624799	      1.73505858	      6.49314085	      4.74692179	      3.36741494	      2.84045342	      4.68620399	      3.49936562	      2.57179967	      1.62942577	      4.22200435	      6.41875053	      4.80394435	     24.24202597	     14.76769225	      4.17510742	      3.11330432	      5.05495109	    241.09194130	     45.26013632	     85.54440216	     63.47841287	      0.00000000	      0.00000000	     12.86386368	     16.67540318	      2.77070131	      3.24003298	     14.95373634	      3.45138074	      9.05973773	      6.59628202	      7.69167694	      2.49793807	      8.82599062	      6.54275375	      7.01603954	      3.05180094	      3.60484324	      3.73207779	     10.57776181	      4.76767372	      9.21864791	      8.30806641	      1.74318377	      6.49314085	      4.74692179	      3.36741494	      2.84045342	      4.68620399	      4.52980353	      2.57179967	      1.79216530	      4.22200435	      6.41875053	      4.80394435	     24.24202597	     14.76769225	      4.17510742	      3.11330432	      5.05495109	     12.76166683	      7.63985709	      8.78818361	      9.44346001	     17.79986503	      8.26721660	     38.42338451	     45.31792648	      3.52304366	      3.63458582	     10.03490778	      5.26305798	     14.53335731	      2.28468458	      6.48143780	      2.03998397	     28.71042432	     28.71042432	     10.45999939	     10.45999939	     28.11679069	     28.11679069	      2.76307435	     50.99597937	     -9.56042239	      5.21997485	     -0.02578839	      1.48581788	     -2.76307435	    -50.99597937	      9.56042239	     -1.74637766	      0.02558040	     -0.48301696	     -3.31599387	     20.97615968	     -3.40468921	      0.94473225	     -0.02138609	     -1.00501789	      3.31599387	    -20.97615968	      3.40468921	      0.28075727	      0.00368718	     -0.29758878	    296.99279651	    -10.58587052	     54.62094555	    -21.85487564	      7.29584675	    120.67105241	   -296.99279651	     10.58587052	    -54.62094555	     -0.10053885	     -9.92623557	     -1.80172621	    146.67850144	   -106.90180819	    -26.19174360	      8.56954928	     -2.77463770	     59.15511078	   -146.67850144	    106.90180819	     26.19174360	      1.55207160	      2.98675339	     -3.33795500	      0.00000000	      0.00000000	      0.00000000	      0.00000000	      0.00000000	      0.00000000	      0.00000000	      0.00000000	      0.00000000	      0.00000000	      0.00000000	      0.00000000	      0.00000000	      0.00000000	      0.00000000	      0.00000000	      0.00000000	      0.00000000	      0.00000000	      0.00000000	      0.00000000	      0.00000000	      0.00000000	      0.00000000	   -503.08633503	     18.32941438	    112.53962483	     -0.20418326	     10.14164601	     -2.51772755	    503.08633503	    -18.32941438	   -112.53962483	     45.29488662	     -8.76874788	    203.86327414	      0.00000000	      0.00000000	      0.00000000	      0.00000000	      0.00000000	      0.00000000	      0.00000000	      0.00000000	      0.00000000	      0.00000000	      0.00000000	      0.00000000	      0.00000000	      0.00000000	    846.66763869	    414.80325827	     19.20721131	      7.37300632	      1.46795155	      0.00000000	      0.00000000	      0.00000000	      0.00000000	      0.00000000	      0.00000001	      0.00000000	      0.00000000	   -110.00000000	      0.00000000
      0.25165889	      8.79641653	      6.52252891	      6.99408165	      3.04276691	      3.59502844	      3.71960079	      0.00000000	      3.88386862	      4.49451361	      6.27123555	      1.72934704	      6.47283234	      4.73299944	      3.35707165	      2.83151920	      4.67002353	      3.49832922	      2.56413565	      1.62500042	      4.20894151	      6.39883494	      4.78877571	     24.20515527	     14.72589350	      4.16247647	      3.10728858	      5.03354028	    241.20768853	     45.27143326	     85.58376294	     63.43326427	      0.00000000	      0.00000000	     12.77662229	     16.57847754	      2.82624708	      3.23694687	     14.89630086	      3.46067873	      9.03032296	      6.62115776	      7.53170168	      2.46429430	      8.79641653	      6.52252891	      6.99408165	      3.04276691	      3.59502844	      3.71960079	     10.53594872	      4.75184098	      9.18340339	      8.28291179	      1.73804746	      6.47283234	      4.73299944	      3.35707165	      2.83151920	      4.67002353	      4.51977659	      2.56413565	      1.78679179	      4.20894151	      6.39883494	      4.78877571	     24.20515527	     14.72589350	      4.16247647	      3.10728858	      5.03354028	     12.71351659	      7.61563177	      8.75979744	      9.41306665	     17.71888772	      8.22956212	     38.26032785	     45.25071678	      3.50586039	      3.61864334	      9.99836823	      5.24195351	     14.48753892	      2.27822457	      6.45241131	      2.03104836	     28.62524056	     28.62524056	     10.42626079	     10.42626079	     28.08643983	     28.08643983	      2.76307435	     50.99597937	     -9.56042239	      5.21997485	     -0.02578839	      1.48581788	     -2.76307435	    -50.99597937	      9.56042239	     -1.74637766	      0.02558040	     -0.48301696	     -3.31599387	     20.97615968	     -3.40468921	      0.94473225	     -0.02138609	     -1.00501789	      3.31599387	    -20.97615968	      3.40468921	      0.28075727	      0.00368718	     -0.29758878	    296.80902237	    -10.62638868	     53.76132341	    -21.50585211	      7.28166867	    120.60042355	   -296.80902237	     10.62638868	    -53.76132341	     -0.10527612	     -9.88820598	     -1.80350114	    145.14663885	   -106.56487733	    -26.76050614	      8.80416152	     -2.74311569	     58.53820950	   -145.14663885	    106.56487733	     26.76050614	      1.54666871	      2.97632290	     -3.32488461	      0.00000000	      0.00000000	      0.00000000	      0.00000000	      0.00000000	      0.00000000	      0.00000000	      0.00000000	      0.00000000	      0.00000000	      0.00000000	      0.00000000	      0.00000000	      0.00000000	      0.00000000	      0.00000000	      0.00000000	      0.00000000	      0.00000000	      0.00000000	      0.00000000	      0.00000000	      0.00000000	      0.00000000	   -504.30948501	     18.65762530	    113.93164351	     -0.20439059	     10.21053034	     -2.53080531	    504.30948501	    -18.65762530	   -113.93164351	     45.85333232	     -8.80471842	    204.36204791	      0.00000000	      0.00000000	      0.00000000	      0.00000000	      0.00000000	      0.00000000	      0.00000000	      0.00000000	      0.00000000	      0.00000000	      0.00000000	      0.00000000	      0.00000000	      0.00000000	    846.14199429	    413.96906648	     19.02986819	      7.15992123	      1.23418028	      0.00000000	      0.00000000	      0.00000000	      0.00000000	      0.00000000	      0.00000001	      0.00000000	      0.00000000	   -110.00000000	      0.00000000
      0.25324507	      8.77082180	      6.50502328	      6.97507664	      3.03494657	      3.58653301	      3.70880254	      0.00000000	      3.87293024	      4.47940300	      6.25445525	      1.72485352	      6.45525492	      4.72094713	      3.34811904	      2.82378674	      4.65602049	      3.49849583	      2.55750144	      1.62042777	      4.19763541	      6.38159770	      4.77564748	     24.17324562	     14.68972359	      4.15154317	      3.10208317	      5.01498711	    241.24924786	     45.26159998	     85.58235201	     63.38461554	      0.00000000	      0.00000000	     12.70711844	     16.47646559	      2.87616165	      3.23451083	     14.84005552	      3.47378274	      9.01247129	      6.64333481	      7.38613521	      2.43403063	      8.77082180	      6.50502328	      6.97507664	      3.03494657	      3.58653301	      3.70880254	     10.49974262	      4.73813848	      9.15289107	      8.26113818	      1.73360113	      6.45525492	      4.72094713	      3.34811904	      2.82378674	      4.65602049	      4.51109902	      2.55750144	      1.78214038	      4.19763541	      6.38159770	      4.77564748	     24.17324562	     14.68972359	      4.15154317	      3.10208317	      5.01498711	     12.67183400	      7.59466629	      8.73523188	      9.38676468	     17.64864262	      8.19689859	     38.11903989	     45.19252168	      3.49096908	      3.60483394	      9.96674145	      5.22367717	     14.44783314	      2.27263415	      6.42725756	      2.02330877	     28.55150152	     28.55150152	     10.39706070	     10.39706070	     28.06017322	     28.06017322	      2.76307435	     50.99597937	     -9.56042239	      5.21997485	     -0.02578839	      1.48581788	     -2.76307435	    -50.99597937	      9.56042239	     -1.74637766	      0.02558040	     -0.48301696	     -3.31599387	     20.97615968	     -3.40468921	      0.94473225	     -0.02138609	     -1.00501789	      3.31599387	    -20.97615968	      3.40468921	      0.28075727	      0.00368718	     -0.29758878	    296.21485329	    -10.47905631	     55.65942943	    -22.27903021	      7.29252348	    120.35933619	   -296.21485329	     10.47905631	    -55.65942943	     -0.09365678	     -9.95208106	     -1.79447472	    145.97439132	   -106.45664867	    -25.49936316	      8.30364273	     -2.74660210	     58.86631894	   -145.97439132	    106.45664867	     25.49936316	      1.54126084	      2.94031783	     -3.31663830	      0.00000000	      0.00000000	      0.00000000	      0.00000000	      0.00000000	      0.00000000	      0.00000000	      0.00000000	      0.00000000	      0.00000000	      0.00000000	      0.00000000	      0.00000000	      0.00000000	      0.00000000	      0.00000000	      0.00000000	      0.00000000	      0.00000000	      0.00000000	      0.00000000	      0.00000000	      0.00000000	      0.00000000	   -505.69383509	     18.35449066	    111.84637605	     -0.19952693	     10.14096331	     -2.52047326	    505.69383509	    -18.35449066	   -111.84637605	     45.01356491	     -8.80167699	    204.91952820	      0.00000000	      0.00000000	      0.00000000	      0.00000000	      0.00000000	      0.00000000	      0.00000000	      0.00000000	      0.00000000	      0.00000000	      0.00000000	      0.00000000	      0.00000000	      0.00000000	    845.89767552	    413.78769612	     18.91795553	      7.04563378	      1.13627646	      0.00000000	      0.00000000	      0.00000000	      0.00000000	      0.00000000	      0.00000001	      0.00000000	      0.00000000	   -110.00000000	      0.00000000
